<?xml version="1.0" standalone="no"?>
<!DOCTYPE svg PUBLIC "-//W3C//DTD SVG 20010904//EN"
 "http://www.w3.org/TR/2001/REC-SVG-20010904/DTD/svg10.dtd">
<svg version="1.0" xmlns="http://www.w3.org/2000/svg"
 width="260.000000pt" height="260.000000pt" viewBox="0 0 260.000000 260.000000"
 preserveAspectRatio="xMidYMid meet">
<metadata>
Created by potrace 1.11, written by Peter Selinger 2001-2013
</metadata>
<g transform="translate(0.000000,260.000000) scale(0.100000,-0.100000)"
fill="#000000" stroke="none">
<path d="M0 1300 l0 -1300 1300 0 1300 0 0 1300 0 1300 -1300 0 -1300 0 0
-1300z m770 485 c0 -41 2 -45 25 -45 23 0 25 -3 25 -50 0 -47 2 -50 25 -50 23
0 25 -3 25 -50 0 -43 3 -50 20 -50 17 0 20 -7 20 -45 0 -41 2 -45 25 -45 23 0
25 -3 25 -50 0 -47 2 -50 25 -50 23 0 25 -3 25 -50 0 -43 3 -50 20 -50 17 0
20 7 20 50 0 47 2 50 25 50 23 0 25 3 25 50 0 47 2 50 25 50 23 0 25 4 25 45
0 38 3 45 20 45 17 0 20 7 20 50 0 46 2 50 24 50 23 0 25 5 28 48 3 40 6 47
26 50 19 3 22 9 22 48 0 40 2 44 25 44 l25 0 0 -530 0 -530 -70 0 -70 0 0 265
0 265 -25 0 c-23 0 -25 -3 -25 -50 0 -47 -2 -50 -25 -50 -23 0 -25 -4 -25 -45
0 -38 -3 -45 -20 -45 -17 0 -20 -7 -20 -50 0 -47 -2 -50 -25 -50 -23 0 -25 4
-25 44 0 39 -3 45 -22 48 -20 3 -23 10 -26 51 -3 42 -5 47 -28 47 -22 0 -24 4
-24 50 0 43 -3 50 -20 50 -19 0 -20 -7 -20 -265 l0 -265 -75 0 -75 0 0 530 0
530 25 0 c23 0 25 -4 25 -45z m1100 -30 c0 -68 -2 -75 -20 -75 -20 0 -20 -7
-20 -310 l0 -310 -75 0 -75 0 0 310 0 310 -25 0 c-24 0 -25 2 -25 75 l0 75
120 0 120 0 0 -75z m-42 -912 l3 -73 -76 0 -75 0 0 75 0 76 73 -3 72 -3 3 -72z"/>
</g>
</svg>
