<?xml version="1.0" standalone="no"?>
<!DOCTYPE svg PUBLIC "-//W3C//DTD SVG 20010904//EN"
 "http://www.w3.org/TR/2001/REC-SVG-20010904/DTD/svg10.dtd">
<svg version="1.0" xmlns="http://www.w3.org/2000/svg"
 width="520.000000pt" height="520.000000pt" viewBox="0 0 520.000000 520.000000"
 preserveAspectRatio="xMidYMid meet">
<metadata>
Created by potrace 1.11, written by Peter Selinger 2001-2013
</metadata>
<g transform="translate(0.000000,520.000000) scale(0.100000,-0.100000)"
fill="#000000" stroke="none">
<path d="M0 2600 l0 -2600 2600 0 2600 0 0 2600 0 2600 -2600 0 -2600 0 0
-2600z m2630 1654 c243 -65 437 -251 512 -489 25 -80 24 -26 18 -877 l-4 -566
70 -69 c84 -82 124 -139 174 -246 52 -114 70 -196 70 -322 0 -129 -18 -209
-75 -330 -131 -281 -400 -455 -703 -455 -247 0 -467 103 -617 289 -129 160
-183 331 -172 540 9 156 62 308 149 420 l34 45 -22 80 c-12 45 -47 176 -78
291 -147 553 -171 638 -209 750 -38 114 -40 126 -40 240 0 92 5 137 21 192 81
281 325 492 602 523 91 9 196 3 270 -16z"/>
<path d="M2368 4219 c-263 -26 -493 -230 -563 -497 -20 -79 -20 -242 1 -324
82 -322 400 -543 717 -499 277 39 465 190 559 445 27 73 30 93 31 206 0 90 -5
142 -17 185 -93 324 -385 518 -728 484z m257 -55 c388 -121 568 -545 381 -901
-42 -79 -134 -179 -211 -228 -256 -164 -570 -130 -786 85 -60 59 -85 93 -117
160 -93 193 -93 367 -1 559 88 181 276 315 484 345 53 8 199 -4 250 -20z"/>
<path d="M2193 3889 c-39 -11 -80 -59 -89 -104 -13 -73 56 -155 132 -155 53 0
109 46 125 102 25 94 -71 184 -168 157z"/>
<path d="M2618 3888 c-44 -12 -87 -58 -90 -96 -4 -74 13 -110 65 -142 106 -65
238 59 180 169 -32 62 -88 86 -155 69z"/>
<path d="M2420 3643 c-34 -12 -50 -37 -50 -75 0 -48 28 -78 73 -78 39 1 63 17
77 54 21 57 -42 120 -100 99z"/>
<path d="M2162 3450 c-86 -53 -76 -180 17 -226 96 -47 210 46 180 149 -26 88
-119 124 -197 77z"/>
<path d="M2589 3455 c-85 -46 -81 -188 7 -230 66 -31 142 -7 176 56 22 41 23
68 4 114 -27 65 -122 95 -187 60z"/>
<path d="M3096 3235 c-65 -103 -97 -143 -161 -203 -79 -74 -198 -140 -306
-169 -87 -23 -261 -23 -349 0 -133 36 -280 123 -359 212 -18 21 -34 35 -37 32
-3 -3 4 -38 15 -78 21 -77 100 -369 172 -639 23 -85 42 -156 44 -158 1 -2 29
20 61 48 239 209 581 248 875 99 34 -16 63 -28 65 -26 2 2 3 208 2 458 -3 450
-3 454 -22 424z"/>
<path d="M2555 2374 c-89 -17 -183 -56 -260 -107 -63 -41 -131 -101 -145 -128
-10 -18 81 -364 93 -353 4 4 7 15 7 24 0 39 63 139 123 197 71 68 117 95 204
117 195 51 407 -39 511 -214 l27 -45 3 184 2 185 -27 22 c-54 43 -169 94 -258
114 -104 23 -181 24 -280 4z"/>
<path d="M3160 2200 c-1 -3 -2 -133 -4 -290 -2 -172 -8 -304 -15 -334 -21 -85
-62 -158 -125 -221 -78 -77 -146 -113 -246 -131 -247 -43 -489 122 -531 363
-12 68 -35 162 -87 361 l-37 143 -19 -23 c-28 -34 -73 -134 -93 -208 -29 -104
-25 -273 9 -380 46 -143 136 -272 252 -357 85 -63 141 -89 249 -118 286 -77
593 42 758 293 104 159 140 340 103 520 -20 96 -51 175 -99 246 -35 54 -113
146 -115 136z"/>
<path d="M2598 2074 c-125 -30 -218 -105 -274 -220 -100 -208 -17 -442 194
-546 62 -31 73 -33 172 -33 97 0 110 2 170 31 95 46 153 101 197 192 37 73 38
80 38 182 0 99 -2 109 -33 172 -56 114 -150 190 -277 223 -71 18 -111 18 -187
-1z m212 -60 c90 -28 194 -133 220 -222 43 -143 8 -276 -96 -373 -50 -45 -77
-62 -138 -82 -127 -43 -274 -3 -368 101 -129 142 -124 358 12 492 97 97 231
128 370 84z"/>
<path d="M2527 1850 c-36 -28 -38 -91 -5 -114 32 -23 71 -20 96 7 60 64 -22
161 -91 107z"/>
<path d="M2773 1858 c-68 -33 -39 -138 38 -138 28 0 69 44 69 73 0 51 -61 88
-107 65z"/>
<path d="M2672 1723 c-22 -8 -34 -41 -22 -63 20 -38 87 -16 78 26 -4 20 -38
43 -56 37z"/>
<path d="M2537 1623 c-9 -2 -24 -18 -32 -34 -39 -75 56 -147 113 -86 54 58 -2
142 -81 120z"/>
<path d="M2775 1618 c-50 -29 -58 -75 -20 -113 33 -34 77 -33 104 1 12 15 21
37 21 49 0 49 -64 87 -105 63z"/>
</g>
</svg>
