<svg xmlns="http://www.w3.org/2000/svg" width="114" height="220" viewBox="0 0 114 220">
    <path class="big-wheel" d="M47.5 8.1C25.4 8.1 7.5 26 7.5 48s17.9 39.9 40 39.9 40-17.9 40-39.9-17.9-39.9-40-39.9zM33.6 26.5c4.7 0 8.6 3.8 8.6 8.6s-3.8 8.6-8.6 8.6-8.6-3.8-8.6-8.6 3.8-8.6 8.6-8.6zm0 44c-4.7 0-8.6-3.8-8.6-8.6s3.8-8.6 8.6-8.6 8.6 3.8 8.6 8.6-3.9 8.6-8.6 8.6zM47 52.8c-2.9 0-5.2-2.3-5.2-5.2 0-2.9 2.3-5.2 5.2-5.2s5.2 2.3 5.2 5.2c0 2.9-2.3 5.2-5.2 5.2zm13.5 17.7c-4.7 0-8.6-3.8-8.6-8.6s3.8-8.6 8.6-8.6 8.6 3.8 8.6 8.6-3.9 8.6-8.6 8.6zm0-26.8c-4.7 0-8.6-3.8-8.6-8.6s3.8-8.6 8.6-8.6 8.6 3.8 8.6 8.6-3.9 8.6-8.6 8.6z"/>
    <path class="small-wheel" d="M62.7 145.4c-12.5 0-22.7 10.2-22.7 22.7s10.2 22.7 22.7 22.7 22.7-10.2 22.7-22.7c0-12.6-10.1-22.7-22.7-22.7zm-7.9 10.5c2.7 0 4.9 2.2 4.9 4.9s-2.2 4.9-4.9 4.9-4.9-2.2-4.9-4.9 2.2-4.9 4.9-4.9zm0 24.9c-2.7 0-4.9-2.2-4.9-4.9s2.2-4.9 4.9-4.9 4.9 2.2 4.9 4.9-2.2 4.9-4.9 4.9zm7.6-10c-1.6 0-3-1.3-3-3s1.3-3 3-3 3 1.3 3 3-1.3 3-3 3zm7.7 10c-2.7 0-4.9-2.2-4.9-4.9s2.2-4.9 4.9-4.9 4.9 2.2 4.9 4.9-2.2 4.9-4.9 4.9zm0-15.2c-2.7 0-4.9-2.2-4.9-4.9s2.2-4.9 4.9-4.9 4.9 2.2 4.9 4.9-2.2 4.9-4.9 4.9z"/>
    <path d="M94 127.1l.8-80.7h-.2C93.7 21.2 72.9.9 47.4.9 21.4.9.2 22 .2 48c0 3.9.5 7.6 1.4 11.2L22 135.6c-7 8.8-11.2 19.9-11.2 32 0 28.4 23.1 51.5 51.5 51.5s51.5-23.1 51.5-51.5c0-16.4-7.7-31.1-19.8-40.5zM47.5 3.9c24.4 0 44.2 19.8 44.2 44.1S71.9 92.1 47.5 92.1 3.3 72.3 3.3 48 23.1 3.9 47.5 3.9zM9 75.3c8.6 12 22.6 19.9 38.5 19.9 20.1 0 37.4-12.7 44.1-30.4L91 125c-8.2-5.5-18.1-8.7-28.7-8.7-15 0-28.5 6.5-37.9 16.7L9 75.3zm81.7 79.9c-4.9-10.5-15.6-17.9-28-17.9-15.2 0-27.8 11-30.4 25.5l-7-26.4c8.9-10.5 22.2-17.2 37-17.2 10.7 0 20.6 3.5 28.6 9.4l-.2 26.6zm-55.8 12.9c0-15.3 12.5-27.8 27.8-27.8s27.9 12.5 27.9 27.8-12.5 27.8-27.8 27.8-27.9-12.5-27.9-27.8zm27.4 48.1c-26.7 0-48.5-21.8-48.5-48.5 0-10.6 3.4-20.4 9.2-28.3l9.9 37h.1c3.6 13 15.6 22.6 29.7 22.6 17 0 30.8-13.8 30.8-30.8l.4-37.2c10.3 8.9 16.9 22.1 16.9 36.7 0 26.7-21.7 48.5-48.5 48.5z"/>
</svg>
