<svg class="fix" xmlns="http://www.w3.org/2000/svg" width="32" height="58" viewBox="0 0 32 58">
    <path d="M26 32.5V13c0-7.2-5.8-13-13-13S0 5.8 0 13c0 1.7.3 3.2.9 4.7l5.9 18C5.1 38 4 40.9 4 44c0 7.7 6.3 14 14 14s14-6.3 14-14c0-4.7-2.4-8.9-6-11.5zM13 1c6.6 0 12 5.4 12 12s-5.4 12-12 12c-5.1 0-9.4-3.2-11.2-7.6l-.2-.5C1.2 15.6 1 14.3 1 13 1 6.4 6.4 1 13 1zM3.2 21.5C5.6 24.3 9.1 26 13 26c5.4 0 10-3.3 12-8v13.9c-2.1-1.2-4.4-1.9-7-1.9-4.2 0-7.9 1.8-10.4 4.7L3.2 21.5zM11 44c0-3.9 3.1-7 7-7s7 3.1 7 7-3.1 7-7 7-7-3.1-7-7zm7-8c-3.9 0-7.2 2.8-7.9 6.5l-2.2-6.7c2.4-2.9 6-4.8 10.1-4.8 2.6 0 5 .8 7 2.1v7.1c-1.4-2.5-4-4.2-7-4.2zm0 21c-7.2 0-13-5.8-13-13 0-2.7.8-5.1 2.2-7.2l3.2 9.7c1.1 3.2 4.1 5.5 7.6 5.5 4.4 0 8-3.6 8-8V33.8c3 2.4 5 6.1 5 10.2 0 7.2-5.8 13-13 13z"/>
</svg>
