<svg class="big-wheel" xmlns="http://www.w3.org/2000/svg" width="22" height="22" viewBox="0 0 22 22">
    <path d="M11 0C4.9 0 0 4.9 0 11s4.9 11 11 11 11-4.9 11-11S17.1 0 11 0zM7.2 5.1c1.3 0 2.4 1 2.4 2.4 0 1.3-1 2.4-2.4 2.4-1.3 0-2.4-1-2.4-2.4s1.1-2.4 2.4-2.4zm0 12.1c-1.3 0-2.4-1-2.4-2.4s1-2.4 2.4-2.4c1.3 0 2.4 1 2.4 2.4s-1.1 2.4-2.4 2.4zm3.7-4.9c-.8 0-1.4-.6-1.4-1.4s.6-1.4 1.4-1.4c.8 0 1.4.6 1.4 1.4s-.6 1.4-1.4 1.4zm3.7 4.9c-1.3 0-2.4-1-2.4-2.4s1-2.4 2.4-2.4c1.3 0 2.4 1 2.4 2.4s-1.1 2.4-2.4 2.4zm0-7.4c-1.3 0-2.4-1-2.4-2.4 0-1.3 1-2.4 2.4-2.4C15.9 5 17 6 17 7.4c-.1 1.4-1.1 2.4-2.4 2.4z"/>
</svg>
