<svg xmlns="http://www.w3.org/2000/svg" width="30" height="50" viewBox="226 86 30 50">
    <path class="marker" d="M242.952 134.587A2.13 2.13 0 0 1 240.97 136a2.132 2.132 0 0 1-1.996-1.396C234.667 123.13 226 108.39 226 101.39c0-8.485 6.728-15.39 15-15.39 8.27 0 15 6.905 15 15.39 0 7.02-8.793 21.6-13.048 33.197z"/>
    <path class="logo" d="M241.875 107.938a2.63 2.63 0 0 0-2.625 2.625 2.63 2.63 0 0 0 2.625 2.625 2.633 2.633 0 0 0 2.625-2.625 2.616 2.616 0 0 0-2.625-2.625zm-.912 1.213a.566.566 0 0 1 0 1.135.568.568 0 0 1 0-1.134zm0 2.882a.568.568 0 0 1 0-1.134.568.568 0 0 1 0 1.134zm.878-1.157a.35.35 0 0 1-.348-.347c0-.198.15-.35.35-.35.192 0 .348.15.348.35a.346.346 0 0 1-.35.347zm.89 1.157a.565.565 0 0 1-.563-.567.564.564 0 1 1 1.13 0c0 .31-.253.567-.568.567zm0-1.76a.563.563 0 0 1-.563-.567.565.565 0 1 1 .562.567z"/>
    <path class="logo" d="M245.375 105.542V97a5.695 5.695 0 0 0-5.688-5.688A5.697 5.697 0 0 0 234 97c0 .72.14 1.412.386 2.047l2.59 7.854a6.085 6.085 0 0 0-1.227 3.662c0 3.377 2.747 6.125 6.124 6.125S248 113.94 248 110.562a6.118 6.118 0 0 0-2.625-5.02zm-10.646-6.86l-.008.003a5.168 5.168 0 0 1-.284-1.685 5.256 5.256 0 0 1 5.25-5.25c2.894 0 5.25 2.355 5.25 5.25s-2.356 5.25-5.25 5.25a5.256 5.256 0 0 1-4.884-3.34l-.075-.228zm.675 2.047a5.665 5.665 0 0 0 4.282 1.957c2.36 0 4.396-1.45 5.25-3.503v6.084a6.062 6.062 0 0 0-3.062-.83c-1.814 0-3.447.8-4.57 2.06l-1.9-5.77zm6.47 6.332a3.502 3.502 0 0 0-3.438 2.864l-.973-2.95a5.68 5.68 0 0 1 4.41-2.102c1.13 0 2.182.335 3.063.902v3.093a3.498 3.498 0 0 0-3.062-1.808zm3.063 3.5c0 1.688-1.374 3.062-3.062 3.062s-3.062-1.374-3.062-3.062 1.374-3.062 3.062-3.062 3.062 1.374 3.062 3.062zm-3.063 5.688a5.695 5.695 0 0 1-5.688-5.688c0-1.166.354-2.25.96-3.155l1.402 4.262.006-.005a3.505 3.505 0 0 0 3.318 2.396 3.5 3.5 0 0 0 3.5-3.5v-4.473a5.666 5.666 0 0 1 2.188 4.474c0 3.14-2.55 5.69-5.687 5.69z"/>
    <path class="logo" d="M239.688 101.812a4.813 4.813 0 0 0 0-9.624c-2.655 0-4.812 2.157-4.812 4.812s2.156 4.812 4.812 4.812zm1.563-2.098a1.036 1.036 0 0 1-1.032-1.036c0-.58.458-1.04 1.033-1.04a1.03 1.03 0 0 1 1.035 1.04c0 .578-.47 1.036-1.034 1.036zm0-5.308a1.03 1.03 0 0 1 1.035 1.04c0 .577-.47 1.038-1.034 1.038a1.04 1.04 0 0 1-1.032-1.04c0-.58.458-1.038 1.033-1.038zm-1.62 1.92c.35 0 .623.274.623.626 0 .35-.274.625-.623.625s-.628-.277-.628-.625a.62.62 0 0 1 .628-.625zm-1.613-1.92c.567 0 1.033.458 1.033 1.04a1.03 1.03 0 0 1-1.033 1.038 1.03 1.03 0 0 1-1.036-1.04c0-.58.458-1.038 1.037-1.038zm0 3.233c.577 0 1.033.457 1.033 1.038a1.036 1.036 0 0 1-2.07 0c0-.58.458-1.04 1.037-1.04z"/>
</svg>
